<svg xmlns="http://www.w3.org/2000/svg" width="1440" height="900"><path d="M836,448L873,667L900,486Z" fill="#4c98ca" stroke="#4c98ca" stroke-width="1.51"/><path d="M873,667L958,642L900,486Z" fill="#3d8bc3" stroke="#3d8bc3" stroke-width="1.51"/><path d="M836,448L627,639L873,667Z" fill="#4f98ca" stroke="#4f98ca" stroke-width="1.51"/><path d="M627,639L745,782L873,667Z" fill="#478ac2" stroke="#478ac2" stroke-width="1.51"/><path d="M1004,831L1063,747L958,642Z" fill="#246eb1" stroke="#246eb1" stroke-width="1.51"/><path d="M836,448L601,394L627,639Z" fill="#69abd4" stroke="#69abd4" stroke-width="1.51"/><path d="M900,486L975,236L836,448Z" fill="#67a7d1" stroke="#67a7d1" stroke-width="1.51"/><path d="M836,448L783,260L601,394Z" fill="#7db6d9" stroke="#7db6d9" stroke-width="1.51"/><path d="M958,642L1062,437L900,486Z" fill="#4590c6" stroke="#4590c6" stroke-width="1.51"/><path d="M627,639L591,779L745,782Z" fill="#548bc1" stroke="#548bc1" stroke-width="1.51"/><path d="M492,570L591,779L627,639Z" fill="#669ccb" stroke="#669ccb" stroke-width="1.51"/><path d="M975,236L783,260L836,448Z" fill="#7cb2d7" stroke="#7cb2d7" stroke-width="1.51"/><path d="M958,642L1178,665L1062,437Z" fill="#3280bd" stroke="#3280bd" stroke-width="1.51"/><path d="M1004,831L958,642L873,667Z" fill="#2d78b7" stroke="#2d78b7" stroke-width="1.51"/><path d="M601,394L492,570L627,639Z" fill="#74afd5" stroke="#74afd5" stroke-width="1.51"/><path d="M745,782L1004,831L873,667Z" fill="#3277b5" stroke="#3277b5" stroke-width="1.51"/><path d="M922,927L1004,831L745,782Z" fill="#2c68a4" stroke="#2c68a4" stroke-width="1.51"/><path d="M591,779L691,901L745,782Z" fill="#4b7cb3" stroke="#4b7cb3" stroke-width="1.51"/><path d="M1062,437L975,236L900,486Z" fill="#64a0ce" stroke="#64a0ce" stroke-width="1.51"/><path d="M840,957L922,927L745,782Z" fill="#32659d" stroke="#32659d" stroke-width="1.51"/><path d="M1063,747L1178,665L958,642Z" fill="#2270b4" stroke="#2270b4" stroke-width="1.51"/><path d="M1188,238L1056,131L975,236Z" fill="#83a6d4" stroke="#83a6d4" stroke-width="1.51"/><path d="M1240,723L1178,665L1063,747Z" fill="#1a64ab" stroke="#1a64ab" stroke-width="1.51"/><path d="M1055,904L1063,747L1004,831Z" fill="#1c5ea1" stroke="#1c5ea1" stroke-width="1.51"/><path d="M601,394L445,452L492,570Z" fill="#86badb" stroke="#86badb" stroke-width="1.51"/><path d="M411,257L445,452L601,394Z" fill="#9ec8e2" stroke="#9ec8e2" stroke-width="1.51"/><path d="M691,901L840,957L745,782Z" fill="#3b6ca2" stroke="#3b6ca2" stroke-width="1.51"/><path d="M783,260L650,189L601,394Z" fill="#96c3e1" stroke="#96c3e1" stroke-width="1.51"/><path d="M737,152L650,189L783,260Z" fill="#9dc5e4" stroke="#9dc5e4" stroke-width="1.51"/><path d="M922,927L1055,904L1004,831Z" fill="#205996" stroke="#205996" stroke-width="1.51"/><path d="M959,1074L1055,904L922,927Z" fill="#215894" stroke="#215894" stroke-width="1.51"/><path d="M895,58L737,152L783,260Z" fill="#9bc2e1" stroke="#9bc2e1" stroke-width="1.51"/><path d="M650,189L572,208L601,394Z" fill="#a2cae3" stroke="#a2cae3" stroke-width="1.51"/><path d="M530,49L572,208L650,189Z" fill="#b5d4e9" stroke="#b5d4e9" stroke-width="1.51"/><path d="M591,779L452,841L691,901Z" fill="#597fb1" stroke="#597fb1" stroke-width="1.51"/><path d="M763,1106L959,1074L840,957Z" fill="#2f6299" stroke="#2f6299" stroke-width="1.51"/><path d="M492,570L452,841L591,779Z" fill="#6995c6" stroke="#6995c6" stroke-width="1.51"/><path d="M252,608L452,841L492,570Z" fill="#7ba3d1" stroke="#7ba3d1" stroke-width="1.51"/><path d="M1178,665L1270,513L1062,437Z" fill="#367cb8" stroke="#367cb8" stroke-width="1.51"/><path d="M1055,904L1240,723L1063,747Z" fill="#145da4" stroke="#145da4" stroke-width="1.51"/><path d="M1378,648L1270,513L1178,665Z" fill="#2468ab" stroke="#2468ab" stroke-width="1.51"/><path d="M445,452L338,471L492,570Z" fill="#8cbbdd" stroke="#8cbbdd" stroke-width="1.51"/><path d="M411,257L338,471L445,452Z" fill="#a3c9e4" stroke="#a3c9e4" stroke-width="1.51"/><path d="M975,236L895,58L783,260Z" fill="#91badd" stroke="#91badd" stroke-width="1.51"/><path d="M1188,238L975,236L1062,437Z" fill="#709fcd" stroke="#709fcd" stroke-width="1.51"/><path d="M1270,513L1188,238L1062,437Z" fill="#578cc2" stroke="#578cc2" stroke-width="1.51"/><path d="M572,208L411,257L601,394Z" fill="#a9cee4" stroke="#a9cee4" stroke-width="1.51"/><path d="M530,49L411,257L572,208Z" fill="#bcd8eb" stroke="#bcd8eb" stroke-width="1.51"/><path d="M1056,131L895,58L975,236Z" fill="#90b4da" stroke="#90b4da" stroke-width="1.51"/><path d="M737,152L642,6L650,189Z" fill="#add0e8" stroke="#add0e8" stroke-width="1.51"/><path d="M452,841L435,919L691,901Z" fill="#5d7ba8" stroke="#5d7ba8" stroke-width="1.51"/><path d="M380,967L435,919L251,790Z" fill="#7081ad" stroke="#7081ad" stroke-width="1.51"/><path d="M1284,935L1368,680L1240,723Z" fill="#0a4e98" stroke="#0a4e98" stroke-width="1.51"/><path d="M840,957L959,1074L922,927Z" fill="#285e97" stroke="#285e97" stroke-width="1.51"/><path d="M763,1106L840,957L691,901Z" fill="#3a699d" stroke="#3a699d" stroke-width="1.51"/><path d="M594,1148L763,1106L691,901Z" fill="#456ea0" stroke="#456ea0" stroke-width="1.51"/><path d="M338,471L252,608L492,570Z" fill="#8cb7dc" stroke="#8cb7dc" stroke-width="1.51"/><path d="M205,376L252,608L338,471Z" fill="#9dc4e2" stroke="#9dc4e2" stroke-width="1.51"/><path d="M1270,513L1361,299L1188,238Z" fill="#5f88bc" stroke="#5f88bc" stroke-width="1.51"/><path d="M1240,723L1378,648L1178,665Z" fill="#1660a7" stroke="#1660a7" stroke-width="1.51"/><path d="M1284,935L1240,723L1055,904Z" fill="#0f4d92" stroke="#0f4d92" stroke-width="1.51"/><path d="M1368,680L1378,648L1240,723Z" fill="#16599e" stroke="#16599e" stroke-width="1.51"/><path d="M895,58L642,6L737,152Z" fill="#a9cce7" stroke="#a9cce7" stroke-width="1.51"/><path d="M642,6L530,49L650,189Z" fill="#bad7eb" stroke="#bad7eb" stroke-width="1.51"/><path d="M547,1134L594,1148L691,901Z" fill="#5073a3" stroke="#5073a3" stroke-width="1.51"/><path d="M251,790L435,919L452,841Z" fill="#7187b6" stroke="#7187b6" stroke-width="1.51"/><path d="M1140,1135L1284,935L1055,904Z" fill="#11498a" stroke="#11498a" stroke-width="1.51"/><path d="M252,608L251,790L452,841Z" fill="#7e9bcb" stroke="#7e9bcb" stroke-width="1.51"/><path d="M1098,-75L1015,-35L1056,131Z" fill="#9ab5db" stroke="#9ab5db" stroke-width="1.51"/><path d="M1494,438L1361,299L1270,513Z" fill="#4a76aa" stroke="#4a76aa" stroke-width="1.51"/><path d="M763,1106L1140,1135L959,1074Z" fill="#245a95" stroke="#245a95" stroke-width="1.51"/><path d="M547,1134L691,901L435,919Z" fill="#5877a4" stroke="#5877a4" stroke-width="1.51"/><path d="M380,967L547,1134L435,919Z" fill="#647ca8" stroke="#647ca8" stroke-width="1.51"/><path d="M258,252L338,471L411,257Z" fill="#b6d4e9" stroke="#b6d4e9" stroke-width="1.51"/><path d="M258,252L205,376L338,471Z" fill="#b3d3e8" stroke="#b3d3e8" stroke-width="1.51"/><path d="M252,608L134,735L251,790Z" fill="#88a5d2" stroke="#88a5d2" stroke-width="1.51"/><path d="M895,58L797,-119L642,6Z" fill="#afcfe8" stroke="#afcfe8" stroke-width="1.51"/><path d="M1056,131L1015,-35L895,58Z" fill="#9ab9dd" stroke="#9ab9dd" stroke-width="1.51"/><path d="M1098,-75L1056,131L1323,-8Z" fill="#94aad4" stroke="#94aad4" stroke-width="1.51"/><path d="M299,66L258,252L411,257Z" fill="#ccdff1" stroke="#ccdff1" stroke-width="1.51"/><path d="M959,1074L1140,1135L1055,904Z" fill="#1a5291" stroke="#1a5291" stroke-width="1.51"/><path d="M594,1148L1140,1135L763,1106Z" fill="#32649a" stroke="#32649a" stroke-width="1.51"/><path d="M642,6L439,-13L530,49Z" fill="#cae1ef" stroke="#cae1ef" stroke-width="1.51"/><path d="M1015,-35L797,-119L895,58Z" fill="#a4c5e3" stroke="#a4c5e3" stroke-width="1.51"/><path d="M530,49L299,66L411,257Z" fill="#cbdff0" stroke="#cbdff0" stroke-width="1.51"/><path d="M642,-167L439,-13L642,6Z" fill="#c7e0ef" stroke="#c7e0ef" stroke-width="1.51"/><path d="M1378,648L1494,438L1270,513Z" fill="#3168a2" stroke="#3168a2" stroke-width="1.51"/><path d="M1606,677L1494,438L1378,648Z" fill="#255b95" stroke="#255b95" stroke-width="1.51"/><path d="M1497,787L1378,648L1368,680Z" fill="#134e8f" stroke="#134e8f" stroke-width="1.51"/><path d="M71,615L134,735L252,608Z" fill="#91b0d8" stroke="#91b0d8" stroke-width="1.51"/><path d="M185,1037L375,1139L380,967Z" fill="#7182ac" stroke="#7182ac" stroke-width="1.51"/><path d="M380,967L375,1139L547,1134Z" fill="#667da8" stroke="#667da8" stroke-width="1.51"/><path d="M1015,-35L852,-225L797,-119Z" fill="#a6c6e3" stroke="#a6c6e3" stroke-width="1.51"/><path d="M1323,-8L1056,131L1188,238Z" fill="#87a0ce" stroke="#87a0ce" stroke-width="1.51"/><path d="M1371,80L1188,238L1361,299Z" fill="#788fbf" stroke="#788fbf" stroke-width="1.51"/><path d="M439,-13L299,66L530,49Z" fill="#d4e5f3" stroke="#d4e5f3" stroke-width="1.51"/><path d="M258,252L115,263L205,376Z" fill="#c5ddee" stroke="#c5ddee" stroke-width="1.51"/><path d="M185,1037L380,967L251,790Z" fill="#7483ad" stroke="#7483ad" stroke-width="1.51"/><path d="M547,1134L375,1139L594,1148Z" fill="#5e7aa6" stroke="#5e7aa6" stroke-width="1.51"/><path d="M1284,935L1497,787L1368,680Z" fill="#094388" stroke="#094388" stroke-width="1.51"/><path d="M1512,866L1497,787L1284,935Z" fill="#093674" stroke="#093674" stroke-width="1.51"/><path d="M51,456L252,608L205,376Z" fill="#a4c8e5" stroke="#a4c8e5" stroke-width="1.51"/><path d="M51,456L71,615L252,608Z" fill="#9cc0e0" stroke="#9cc0e0" stroke-width="1.51"/><path d="M1503,147L1371,80L1361,299Z" fill="#7586b1" stroke="#7586b1" stroke-width="1.51"/><path d="M797,-119L642,-167L642,6Z" fill="#b8d6ec" stroke="#b8d6ec" stroke-width="1.51"/><path d="M439,-13L329,-100L299,66Z" fill="#dfebf7" stroke="#dfebf7" stroke-width="1.51"/><path d="M852,-225L642,-167L797,-119Z" fill="#b1d0e9" stroke="#b1d0e9" stroke-width="1.51"/><path d="M1304,1158L1393,1043L1284,935Z" fill="#093a7a" stroke="#093a7a" stroke-width="1.51"/><path d="M148,62L115,263L258,252Z" fill="#d6e6f4" stroke="#d6e6f4" stroke-width="1.51"/><path d="M1393,1043L1512,866L1284,935Z" fill="#093471" stroke="#093471" stroke-width="1.51"/><path d="M1497,787L1606,677L1378,648Z" fill="#134c8c" stroke="#134c8c" stroke-width="1.51"/><path d="M115,263L51,456L205,376Z" fill="#bdd9ec" stroke="#bdd9ec" stroke-width="1.51"/><path d="M1371,80L1323,-8L1188,238Z" fill="#8397c5" stroke="#8397c5" stroke-width="1.51"/><path d="M594,1148L1304,1158L1140,1135Z" fill="#1e5592" stroke="#1e5592" stroke-width="1.51"/><path d="M1140,1135L1304,1158L1284,935Z" fill="#0a4284" stroke="#0a4284" stroke-width="1.51"/><path d="M1371,80L1434,-71L1323,-8Z" fill="#8b95bc" stroke="#8b95bc" stroke-width="1.51"/><path d="M1494,438L1522,258L1361,299Z" fill="#5b79a5" stroke="#5b79a5" stroke-width="1.51"/><path d="M1641,372L1522,258L1494,438Z" fill="#5676a4" stroke="#5676a4" stroke-width="1.51"/><path d="M131,1016L251,790L134,735Z" fill="#8090bc" stroke="#8090bc" stroke-width="1.51"/><path d="M131,1016L185,1037L251,790Z" fill="#7a87af" stroke="#7a87af" stroke-width="1.51"/><path d="M1053,-194L1015,-35L1098,-75Z" fill="#9bb5db" stroke="#9bb5db" stroke-width="1.51"/><path d="M1053,-194L852,-225L1015,-35Z" fill="#a0bedf" stroke="#a0bedf" stroke-width="1.51"/><path d="M1228,-151L1053,-194L1098,-75Z" fill="#98afd7" stroke="#98afd7" stroke-width="1.51"/><path d="M1628,839L1606,677L1497,787Z" fill="#0b4385" stroke="#0b4385" stroke-width="1.51"/><path d="M1568,136L1503,147L1522,258Z" fill="#7383ad" stroke="#7383ad" stroke-width="1.51"/><path d="M1522,258L1503,147L1361,299Z" fill="#6d7fab" stroke="#6d7fab" stroke-width="1.51"/><path d="M185,1037L49,1066L375,1139Z" fill="#7986af" stroke="#7986af" stroke-width="1.51"/><path d="M-4,724L131,1016L134,735Z" fill="#8897c2" stroke="#8897c2" stroke-width="1.51"/><path d="M299,66L148,62L258,252Z" fill="#d9e7f6" stroke="#d9e7f6" stroke-width="1.51"/><path d="M378,-238L329,-100L439,-13Z" fill="#dceaf6" stroke="#dceaf6" stroke-width="1.51"/><path d="M378,-238L439,-13L430,-276Z" fill="#d9e8f5" stroke="#d9e8f5" stroke-width="1.51"/><path d="M71,615L-4,724L134,735Z" fill="#94aed7" stroke="#94aed7" stroke-width="1.51"/><path d="M-53,585L-4,724L71,615Z" fill="#9cb9dd" stroke="#9cb9dd" stroke-width="1.51"/><path d="M1434,-71L1228,-151L1323,-8Z" fill="#8e9ac3" stroke="#8e9ac3" stroke-width="1.51"/><path d="M1323,-8L1228,-151L1098,-75Z" fill="#93a6d0" stroke="#93a6d0" stroke-width="1.51"/><path d="M129,-106L148,62L299,66Z" fill="#e9f2fa" stroke="#e9f2fa" stroke-width="1.51"/><path d="M-248,546L-53,585L-255,385Z" fill="#adcde7" stroke="#adcde7" stroke-width="1.51"/><path d="M1606,677L1641,372L1494,438Z" fill="#37679c" stroke="#37679c" stroke-width="1.51"/><path d="M1228,-151L1001,-270L1053,-194Z" fill="#99b1d9" stroke="#99b1d9" stroke-width="1.51"/><path d="M1053,-194L1001,-270L852,-225Z" fill="#a0bee0" stroke="#a0bee0" stroke-width="1.51"/><path d="M430,-276L439,-13L642,-167Z" fill="#cfe4f1" stroke="#cfe4f1" stroke-width="1.51"/><path d="M1512,866L1628,839L1497,787Z" fill="#093a7a" stroke="#093a7a" stroke-width="1.51"/><path d="M1606,677L1628,839L1641,372Z" fill="#1e5693" stroke="#1e5693" stroke-width="1.51"/><path d="M1687,1017L1628,839L1512,866Z" fill="#08306b" stroke="#08306b" stroke-width="1.51"/><path d="M1687,1017L1512,866L1393,1043Z" fill="#08306b" stroke="#08306b" stroke-width="1.51"/><path d="M-37,254L51,456L115,263Z" fill="#cbe1f0" stroke="#cbe1f0" stroke-width="1.51"/><path d="M51,456L-53,585L71,615Z" fill="#a4c6e3" stroke="#a4c6e3" stroke-width="1.51"/><path d="M1653,280L1568,136L1522,258Z" fill="#6e80ab" stroke="#6e80ab" stroke-width="1.51"/><path d="M1503,147L1434,-71L1371,80Z" fill="#818cb2" stroke="#818cb2" stroke-width="1.51"/><path d="M1641,372L1653,280L1522,258Z" fill="#607ba7" stroke="#607ba7" stroke-width="1.51"/><path d="M1687,1017L1653,280L1641,372Z" fill="#2a6098" stroke="#2a6098" stroke-width="1.51"/><path d="M1568,136L1434,-71L1503,147Z" fill="#7f8ab1" stroke="#7f8ab1" stroke-width="1.51"/><path d="M1228,-151L1470,-271L1001,-270Z" fill="#93a4cf" stroke="#93a4cf" stroke-width="1.51"/><path d="M148,62L34,114L115,263Z" fill="#e0ecf8" stroke="#e0ecf8" stroke-width="1.51"/><path d="M-66,-62L34,114L148,62Z" fill="#f1f7fd" stroke="#f1f7fd" stroke-width="1.51"/><path d="M34,114L-37,254L115,263Z" fill="#deeaf7" stroke="#deeaf7" stroke-width="1.51"/><path d="M131,1016L49,1066L185,1037Z" fill="#7e89b1" stroke="#7e89b1" stroke-width="1.51"/><path d="M-94,984L49,1066L131,1016Z" fill="#858db3" stroke="#858db3" stroke-width="1.51"/><path d="M-94,984L131,1016L-4,724Z" fill="#868eb3" stroke="#868eb3" stroke-width="1.51"/><path d="M430,-276L642,-167L852,-225Z" fill="#bedaed" stroke="#bedaed" stroke-width="1.51"/><path d="M329,-100L129,-106L299,66Z" fill="#e6f0fa" stroke="#e6f0fa" stroke-width="1.51"/><path d="M1001,-270L430,-276L852,-225Z" fill="#b1d1e9" stroke="#b1d1e9" stroke-width="1.51"/><path d="M178,-266L329,-100L378,-238Z" fill="#e3eef9" stroke="#e3eef9" stroke-width="1.51"/><path d="M178,-266L129,-106L329,-100Z" fill="#e9f1fb" stroke="#e9f1fb" stroke-width="1.51"/><path d="M-173,129L-181,242L-37,254Z" fill="#e1ecf8" stroke="#e1ecf8" stroke-width="1.51"/><path d="M1628,839L1687,1017L1641,372Z" fill="#0f4688" stroke="#0f4688" stroke-width="1.51"/><path d="M1663,1106L1687,1017L1393,1043Z" fill="#08306b" stroke="#08306b" stroke-width="1.51"/><path d="M-148,885L-94,984L-4,724Z" fill="#8a94bb" stroke="#8a94bb" stroke-width="1.51"/><path d="M-148,885L-4,724L-210,784Z" fill="#909fcb" stroke="#909fcb" stroke-width="1.51"/><path d="M-210,784L-4,724L-53,585Z" fill="#98afd8" stroke="#98afd8" stroke-width="1.51"/><path d="M1304,1158L1663,1106L1393,1043Z" fill="#08306b" stroke="#08306b" stroke-width="1.51"/><path d="M-148,885L-103,1045L-94,984Z" fill="#878eb3" stroke="#878eb3" stroke-width="1.51"/><path d="M-94,984L-103,1045L49,1066Z" fill="#878eb3" stroke="#878eb3" stroke-width="1.51"/><path d="M49,1066L-103,1045L375,1139Z" fill="#7f8ab1" stroke="#7f8ab1" stroke-width="1.51"/><path d="M-37,254L-255,385L51,456Z" fill="#c6dfee" stroke="#c6dfee" stroke-width="1.51"/><path d="M-173,129L-37,254L34,114Z" fill="#e5eff9" stroke="#e5eff9" stroke-width="1.51"/><path d="M-148,885L-210,784L-103,1045Z" fill="#878eb3" stroke="#878eb3" stroke-width="1.51"/><path d="M-248,546L-210,784L-53,585Z" fill="#9db9dd" stroke="#9db9dd" stroke-width="1.51"/><path d="M129,-106L-66,-62L148,62Z" fill="#f2f8fe" stroke="#f2f8fe" stroke-width="1.51"/><path d="M430,-276L178,-266L378,-238Z" fill="#e1ecf8" stroke="#e1ecf8" stroke-width="1.51"/><path d="M-255,385L-53,585L51,456Z" fill="#b1d1e9" stroke="#b1d1e9" stroke-width="1.51"/><path d="M1001,-270L1470,-271L430,-276Z" fill="#a0bfe0" stroke="#a0bfe0" stroke-width="1.51"/><path d="M1434,-71L1470,-271L1228,-151Z" fill="#8b95bc" stroke="#8b95bc" stroke-width="1.51"/><path d="M1667,-231L1470,-271L1434,-71Z" fill="#878eb3" stroke="#878eb3" stroke-width="1.51"/><path d="M1671,-78L1434,-71L1568,136Z" fill="#878eb3" stroke="#878eb3" stroke-width="1.51"/><path d="M178,-266L24,-166L129,-106Z" fill="#f0f6fd" stroke="#f0f6fd" stroke-width="1.51"/><path d="M1653,280L1671,-78L1568,136Z" fill="#7a87af" stroke="#7a87af" stroke-width="1.51"/><path d="M1687,1017L1671,-78L1653,280Z" fill="#4a71a1" stroke="#4a71a1" stroke-width="1.51"/><path d="M-181,242L-255,385L-37,254Z" fill="#d3e6f2" stroke="#d3e6f2" stroke-width="1.51"/><path d="M-110,-19L-173,129L34,114Z" fill="#eff5fd" stroke="#eff5fd" stroke-width="1.51"/><path d="M24,-166L-66,-62L129,-106Z" fill="#f5f9ff" stroke="#f5f9ff" stroke-width="1.51"/><path d="M-173,129L-255,385L-181,242Z" fill="#dae9f6" stroke="#dae9f6" stroke-width="1.51"/><path d="M-244,-203L-110,-19L-66,-62Z" fill="#f7fbff" stroke="#f7fbff" stroke-width="1.51"/><path d="M-66,-62L-110,-19L34,114Z" fill="#f6fafe" stroke="#f6fafe" stroke-width="1.51"/><path d="M1671,-78L1667,-231L1434,-71Z" fill="#878eb3" stroke="#878eb3" stroke-width="1.51"/><path d="M24,-166L-244,-203L-66,-62Z" fill="#f7fbff" stroke="#f7fbff" stroke-width="1.51"/><path d="M-110,-19L-244,-203L-173,129Z" fill="#f7fbff" stroke="#f7fbff" stroke-width="1.51"/><path d="M-173,129L-244,-203L-255,385Z" fill="#ecf3fc" stroke="#ecf3fc" stroke-width="1.51"/><path d="M178,-266L-244,-203L24,-166Z" fill="#f7fbff" stroke="#f7fbff" stroke-width="1.51"/></svg>